<svg width="215" height="331" viewBox="0 0 215 331" fill="none" xmlns="http://www.w3.org/2000/svg">
<path d="M178.766 153.932L185.728 135.371L196.69 139.202L206.506 148.139L186.939 165.492L178.319 166.459L178.766 153.932Z" fill="#DFBCA4"/>
<path d="M190.151 147.808L183.413 129.313L177.554 129.429L178.766 153.932L174.845 167.333L184.168 159.939L190.151 147.808ZM185.728 135.371L202.888 117.546L213.759 127.683L206.506 148.139L185.728 135.371Z" fill="#C3977A"/>
<path d="M129.118 135.04L146.802 150.324L143 160.949L132.222 173.56L106.056 200.326L113.455 160.134L129.118 135.04Z" fill="#3E8F6E"/>
<path d="M146.802 150.324L170.077 169.149L165.853 177.897L143.922 181.752L132.223 173.56L146.802 150.324Z" fill="#99C26C"/>
<path d="M143.922 181.752L178.807 153.551L196.905 172.302L163.738 195.505L143.922 181.752Z" fill="#738D56"/>
<path opacity="0.1" d="M214.348 318.654L100.639 309.866L0.281738 319.68L100.871 331L214.348 318.654Z" fill="black"/>
<path d="M71.4215 311.214L49.8049 319.662L46.0376 311.321L49.083 297.427L55.763 294.928L65.7124 298.065L71.4215 311.214ZM153.49 300.068L144.951 315.517L128.114 306.804L126.704 297.188L141.906 290.146L153.49 300.068Z" fill="#4F5252"/>
<path opacity="0.1" d="M142.52 290.667L128.115 306.803L126.703 297.188L131.675 291.851L142.52 290.667ZM49.0829 297.428L57.8208 294.929L65.7123 298.066L47.2739 305.679L49.0829 297.428Z" fill="black"/>
<path d="M142.463 313.035L128.115 306.804L129.177 318.422L174.5 318.803L174.253 306.299L153.49 300.068L142.463 313.035ZM79.9606 324.28L79.7199 310.825L59.7962 308.731L51.1827 317.486L46.0379 311.321L45.457 324.28H79.9606Z" fill="#6E7073"/>
<path d="M130.812 214.62L150.884 275.243L136.322 288.466L119.692 286.877L112.241 264.386L98.1752 255.251L78.4423 286.877L65.7138 294.929L44.7769 285.305L44.9843 224.715L55.9635 194.876L130.812 214.62Z" fill="#53AF8A"/>
<path d="M124.978 219.188L146.096 278.876L138.122 282.914L114.671 230.244L124.978 219.188ZM110.232 244.029L129.558 285.941L119.691 286.877L98.1746 255.251L99.7844 230.003L110.232 244.029ZM86.524 246.032L70.8738 288.499L62.5425 287.638L75.695 230.88L86.524 246.032ZM67.7454 219.743L56.1612 288.781L48.917 285.694L51.5641 234.017L67.7454 219.743Z" fill="#3E8F6E"/>
<path d="M150.884 275.243L119.692 286.878L126.704 297.188L154.834 287.176L150.884 275.243ZM78.4418 286.878L44.7764 285.305L44.7349 297.188L71.2556 298.396L78.4418 286.878ZM110.232 244.03L98.1747 255.251L86.5242 246.032L99.7846 224.211L110.232 244.03Z" fill="#35785D"/>
<path d="M2.89551 195.869L35.7726 218.046L44.7346 200.156L2.89551 195.869Z" fill="#4F5252"/>
<path d="M13.791 107.649L84.7814 108.278L105.921 109.711L73.2636 123.016L46.1537 124.092L13.791 107.649Z" fill="#C4C4C4"/>
<path d="M46.7593 118.63L13.7909 107.649L10.9198 130.952L10.7538 148.66L7.01138 162.562L2.89551 195.869L56.8333 203.582L46.7593 118.63Z" fill="#6E7073"/>
<path d="M74.9236 115.147L46.7598 118.63L45.3989 130.935L40.7354 201.703L90.4991 190.855L101.489 110.031L74.9236 115.147Z" fill="#4F5252"/>
<path d="M10.9196 130.952L19.168 136.157L31.0758 138.275L26.1301 171.491L7.01123 162.562L8.82851 147.866L11.3677 141.685L10.9196 130.952Z" fill="#9DA0A1"/>
<path d="M31.0764 138.275L8.8291 147.866L10.9202 130.952L31.0764 138.275Z" fill="#C4C4C4"/>
<path d="M120.48 136.869L132.222 173.56L130.811 214.62L110.232 244.03L99.7846 230.004L86.5242 246.032L62.4928 212.386L44.7349 209.622L47.9462 175.753L72.8273 123.173L96.8254 119.438L120.48 136.869Z" fill="#738D56"/>
<path d="M102.199 172.301L87.7271 211.575L99.7842 220.794L112.646 211.972L102.199 172.301Z" fill="#4F5252"/>
<path d="M112.646 211.972L87.7271 211.575L99.7842 230.004L112.646 211.972ZM114.878 158.359L102.199 172.302L90.1833 156.588L103.402 154.271L114.878 158.359Z" fill="#464646"/>
<path d="M55.1741 168.992V143.935L45.399 130.935L21.2266 186.13L38.2045 185.261L47.9465 179.899L55.1741 168.992Z" fill="#5A753C"/>
<path d="M73.2635 123.016L45.3984 130.935L55.1736 168.992L73.2635 123.016Z" fill="#3E8F6E"/>
<path d="M62.4929 212.386L67.7456 219.743L51.5643 234.017L44.9839 224.715L48.9172 214.016L62.4929 212.386Z" fill="#C3977A"/>
<path d="M21.2266 186.129L40.3205 228.001L62.4931 212.385L47.9465 179.898L21.2266 186.129Z" fill="#99C26C"/>
<path d="M103.402 154.271L91.0132 132.499L73.2636 123.016L69.9277 170.664L103.402 154.271Z" fill="#99C26C"/>
<path d="M129.118 135.04L108.448 139.409L103.402 154.271L132.222 173.56L129.118 135.04Z" fill="#99C26C"/>
<path d="M83.7112 0L34.2876 44.4781L112.24 34.7624L83.7112 0Z" fill="#3E8F6E"/>
<path d="M125.5 117.406L112.24 128.039V147.866L129.117 135.04L125.5 117.406ZM78.4993 98.2159L73.2632 123.016L88.8055 139.136L87.7268 119.011L78.4993 98.2159Z" fill="#5A753C"/>
<path d="M47.9458 104.182L78.4995 98.216L80.1508 89.4362L74.8649 79.7379L62.6584 87.4668L47.9458 104.182Z" fill="#35785D"/>
<path d="M177.81 45.6201L165.048 72.547L160.965 106.309L184.972 94.5667L183.769 52.0912L182.864 46.729L177.81 45.6201Z" fill="#3E8F6E"/>
<path d="M169.505 71.7194L177.09 98.4229L160.966 106.309L163.248 95.9155L168.85 93.0689L166.775 85.3814L169.505 71.7194Z" fill="#99C26C"/>
<path d="M177.812 45.6201L167.226 83.7679L164.213 94.623L156.444 122.619L125.5 117.406L109.692 141.9L103.402 154.271L96.8718 132.632L74.8652 79.7379L115.037 43.2369L157.249 23.2445L177.812 45.6201Z" fill="#DFBCA4"/>
<path d="M149.134 27.084L177.993 45.8186L167.813 30.1044L157.248 19.9344L150.271 21.9122L149.134 27.084Z" fill="#8A6651"/>
<path d="M115.036 43.2369L100.29 112.11L112.845 122.619L118.869 132.632L112.24 147.866L103.401 154.271L88.8059 139.136L78.4997 98.216L80.1502 89.4362L74.8643 79.7379L115.036 43.2369Z" fill="#C3977A"/>
<path d="M115.037 43.2369L100.34 67.3006L85.7771 76.5851L100.988 82.5431L78.5005 98.216L74.8643 79.7379L89.5113 63.8251L115.037 43.2369Z" fill="#8A6651"/>
<path d="M99.9003 56.9899L100.987 82.5431L68.5666 85.4559L64.7329 67.2758L70.881 62.8842L76.5743 76.6017L94.158 75.7328L92.988 61.6819L99.9003 56.9899Z" fill="#99C26C"/>
<path d="M125.5 117.406L89.1377 109.768L118.87 132.632L125.5 117.406Z" fill="#8A6651"/>
<path d="M115.036 43.2371L68.5667 59.2409L37.1003 80.1436L47.9451 104.182L115.036 43.2371ZM83.7656 0.0374146L37.5733 47.8446L114.656 32.7303L83.7656 0.0374146ZM34.2864 44.4783L13.79 63.7177L37.1003 80.1436L39.0329 59.2409L34.2864 44.4783Z" fill="#3E8F6E"/>
<path d="M83.7114 0.000976562L104.19 32.4059L157.248 23.2455V16.2026L148.005 0.406452L83.7114 0.000976562Z" fill="#71C8A6"/>
<path d="M157.248 23.2445L183.769 52.0911L198.233 34.4645L148.005 0.405457L157.248 23.2445ZM157.248 23.2445L37.0997 80.1434L34.2866 44.4781L157.248 23.2445Z" fill="#53AF8A"/>
<path d="M141.499 80.4827L136.172 56.51L129.923 44.4781L145.997 44.0809L146.412 51.305L141.499 80.4827ZM153.258 52.5545L157.249 46.4807L170.908 53.2993L149.748 71.9925L153.258 52.5545Z" fill="#C3977A"/>
<path d="M147.988 81.7156L143.764 85.6049L141.499 80.4827L147.988 81.7156Z" fill="#8A6651"/>
<path d="M153.257 52.5545L147.988 81.7156L141.499 80.4826L146.412 51.305L153.257 52.5545Z" fill="#E8C9B6"/>
<path d="M157.249 46.4807L166.486 44.8836L170.908 53.2993L157.249 46.4807ZM145.997 44.0809L139.167 39.6703L129.923 44.4781L145.997 44.0809Z" fill="#3E8F6E"/>
<path d="M159.157 97.3719L138.968 109.768L120.098 90.5037L159.157 97.3719Z" fill="#738D56"/>
<path d="M154.129 97.7113L143.947 98.0646L141.499 98.1498L137.967 96.9177L124.994 92.3904L135.797 102.345L143.498 103.636L154.129 97.7113Z" fill="white"/>
<path d="M159.157 97.3719L142.611 91.9601L120.098 90.5037L138.342 97.5366L141.499 98.7538L159.157 97.3719Z" fill="#446024"/>
<path d="M165.622 64.545C165.622 65.0884 165.515 65.6265 165.306 66.1285C165.097 66.6305 164.792 67.0866 164.406 67.4708C164.021 67.855 163.564 68.1598 163.06 68.3677C162.557 68.5756 162.017 68.6826 161.472 68.6825C160.927 68.6825 160.388 68.5754 159.884 68.3674C159.381 68.1594 158.923 67.8545 158.538 67.4703C158.153 67.086 157.847 66.6298 157.639 66.1277C157.43 65.6257 157.323 65.0876 157.323 64.5442C157.323 63.4467 157.76 62.3943 158.539 61.6184C159.317 60.8424 160.372 60.4066 161.473 60.4067C162.573 60.4068 163.629 60.8429 164.407 61.6189C165.185 62.395 165.622 63.4476 165.622 64.545ZM138.703 58.5043C138.703 59.6016 138.266 60.654 137.488 61.4299C136.71 62.2058 135.654 62.6418 134.554 62.6418C133.453 62.6418 132.398 62.2058 131.62 61.4299C130.842 60.654 130.405 59.6016 130.405 58.5043C130.405 57.4069 130.842 56.3545 131.62 55.5786C132.398 54.8027 133.453 54.3668 134.554 54.3668C135.654 54.3668 136.71 54.8027 137.488 55.5786C138.266 56.3545 138.703 57.4069 138.703 58.5043Z" fill="#2B2B2B"/>
</svg>
