<svg width="421" height="265" viewBox="0 0 421 265" fill="none" xmlns="http://www.w3.org/2000/svg">
<path d="M112.617 1.85535e-05C115.606 1.85535e-05 118.279 1.86031 119.286 4.64566L126.463 24.5396C129.035 25.18 131.241 25.8204 133.111 26.4913C135.154 27.2233 137.787 28.3313 141.04 29.846L157.752 21.002C159.116 20.2793 160.678 20.0184 162.203 20.2585C163.728 20.4986 165.134 21.2267 166.21 22.3337L180.909 37.5311C182.861 39.554 183.41 42.5122 182.312 45.0942L174.474 63.4633C175.776 65.8522 176.813 67.8955 177.605 69.6033C178.459 71.4636 179.517 74.0253 180.777 77.3291L199.044 85.1565C201.789 86.3255 203.487 89.0702 203.304 92.0081L201.962 113.102C201.87 114.472 201.378 115.785 200.547 116.878C199.716 117.972 198.582 118.797 197.286 119.252L179.984 125.402C179.486 127.791 178.968 129.834 178.419 131.562C177.533 134.231 176.522 136.857 175.389 139.43L184.081 158.643C184.694 159.993 184.859 161.504 184.552 162.954C184.245 164.405 183.481 165.719 182.373 166.704L165.844 181.465C164.755 182.433 163.397 183.045 161.951 183.219C160.505 183.394 159.04 183.122 157.752 182.44L140.715 173.413C138.049 174.825 135.299 176.071 132.481 177.144L125.04 179.93L118.432 198.228C117.942 199.568 117.059 200.728 115.898 201.557C114.737 202.386 113.352 202.845 111.926 202.873L92.6115 203.31C91.1473 203.349 89.7072 202.932 88.4893 202.119C87.2714 201.305 86.3357 200.134 85.8108 198.766L78.0241 178.161C75.3673 177.253 72.7367 176.27 70.1356 175.213C68.0081 174.292 65.9128 173.299 63.8533 172.234L44.5388 180.489C43.2662 181.032 41.8632 181.193 40.5005 180.953C39.1379 180.713 37.8744 180.082 36.8639 179.137L22.5712 165.728C21.5071 164.734 20.7824 163.431 20.4996 162.003C20.2168 160.574 20.3903 159.093 20.9955 157.769L29.3007 139.674C28.1962 137.531 27.1722 135.347 26.2308 133.128C25.1319 130.411 24.1149 127.661 23.1811 124.883L4.98484 119.343C3.50576 118.896 2.21569 117.973 1.31498 116.718C0.414271 115.462 -0.0466729 113.944 0.00373551 112.4L0.715321 92.8721C0.765972 91.598 1.16399 90.362 1.86634 89.2977C2.56869 88.2334 3.54864 87.3814 4.7002 86.8338L23.791 77.6645C24.6754 74.4217 25.448 71.9007 26.1291 70.0607C27.0881 67.6032 28.1531 65.1883 29.3211 62.8229L21.0463 45.3382C20.4184 44.0104 20.2277 42.5177 20.5017 41.0746C20.7757 39.6316 21.5002 38.3127 22.5712 37.3074L36.8436 23.828C37.8441 22.8843 39.0959 22.2499 40.4485 22.001C41.8011 21.7522 43.1968 21.8994 44.4677 22.4251L63.7618 30.3949C65.8966 28.9717 67.828 27.823 69.5765 26.898C71.6604 25.7899 74.4458 24.6311 77.9529 23.3807L84.6621 4.66599C85.1581 3.29637 86.0648 2.11324 87.2583 1.27814C88.4518 0.44304 89.874 -0.00331651 91.3307 1.85535e-05H112.617ZM101.903 71.3517C84.9569 71.3517 71.2233 84.9227 71.2233 101.675C71.2233 118.428 84.9569 132.009 101.903 132.009C118.839 132.009 132.572 118.428 132.572 101.675C132.572 84.9227 118.849 71.3517 101.903 71.3517Z" fill="black"/>
<g clip-path="url(#clip0_34_154)">
<path d="M314.729 26.6973C318.231 26.6973 321.364 28.877 322.543 32.1407L330.952 55.4507C333.965 56.2011 336.55 56.9515 338.742 57.7376C341.136 58.5952 344.221 59.8935 348.032 61.6683L367.614 51.3056C369.213 50.4588 371.043 50.1532 372.829 50.4345C374.616 50.7158 376.264 51.569 377.524 52.866L394.748 70.6731C397.035 73.0434 397.678 76.5095 396.392 79.535L387.208 101.058C388.733 103.857 389.948 106.252 390.877 108.253C391.877 110.432 393.116 113.434 394.593 117.305L415.997 126.477C419.213 127.846 421.202 131.062 420.988 134.505L419.416 159.22C419.308 160.826 418.732 162.365 417.758 163.646C416.784 164.927 415.455 165.894 413.937 166.426L393.664 173.633C393.08 176.432 392.473 178.826 391.83 180.851C390.792 183.978 389.608 187.055 388.28 190.07L398.464 212.582C399.183 214.164 399.376 215.934 399.016 217.634C398.656 219.333 397.762 220.873 396.463 222.028L377.096 239.322C375.82 240.457 374.229 241.174 372.534 241.378C370.839 241.583 369.123 241.264 367.614 240.466L347.651 229.889C344.528 231.543 341.306 233.002 338.003 234.26L329.284 237.524L321.542 258.964C320.968 260.534 319.934 261.894 318.573 262.865C317.213 263.837 315.59 264.374 313.919 264.407L291.288 264.919C289.572 264.964 287.885 264.477 286.458 263.523C285.031 262.57 283.934 261.197 283.319 259.595L274.196 235.451C271.083 234.387 268 233.236 264.953 231.997C262.46 230.918 260.005 229.754 257.591 228.507L234.96 238.179C233.469 238.815 231.825 239.004 230.229 238.723C228.632 238.442 227.152 237.702 225.967 236.595L209.22 220.884C207.974 219.719 207.124 218.192 206.793 216.519C206.462 214.845 206.665 213.109 207.374 211.558L217.106 190.356C215.811 187.845 214.612 185.286 213.508 182.685C212.221 179.502 211.029 176.28 209.935 173.025L188.614 166.534C186.881 166.01 185.37 164.928 184.314 163.457C183.259 161.986 182.719 160.208 182.778 158.398L183.612 135.517C183.671 134.024 184.137 132.576 184.96 131.329C185.783 130.082 186.931 129.084 188.281 128.442L210.65 117.698C211.686 113.898 212.591 110.945 213.389 108.789C214.513 105.909 215.761 103.08 217.129 100.308L207.434 79.8208C206.698 78.265 206.475 76.5159 206.796 74.8251C207.117 73.1343 207.966 71.5889 209.22 70.411L225.944 54.6169C227.116 53.5112 228.583 52.7679 230.168 52.4763C231.753 52.1846 233.388 52.3572 234.877 52.9732L257.484 62.3115C259.986 60.6439 262.249 59.298 264.297 58.2141C266.739 56.9158 270.003 55.5579 274.112 54.0928L281.974 32.1645C282.555 30.5597 283.617 29.1734 285.016 28.1949C286.414 27.2164 288.08 26.6934 289.787 26.6973H314.729ZM302.175 110.301C282.319 110.301 266.227 126.203 266.227 145.832C266.227 165.462 282.319 181.375 302.175 181.375C322.019 181.375 338.111 165.462 338.111 145.832C338.111 126.203 322.031 110.301 302.175 110.301Z" fill="black"/>
</g>
<defs>
<clipPath id="clip0_34_154">
<rect width="238.222" height="238.222" fill="white" transform="translate(182.778 26.6973)"/>
</clipPath>
</defs>
</svg>
